<?xml version="1.0" encoding="utf-8"?>
<!-- Generator: Adobe Illustrator 16.0.3, SVG Export Plug-In . SVG Version: 6.00 Build 0)  -->
<!DOCTYPE svg PUBLIC "-//W3C//DTD SVG 1.1//EN" "http://www.w3.org/Graphics/SVG/1.1/DTD/svg11.dtd">
<svg version="1.1" xmlns="http://www.w3.org/2000/svg" xmlns:xlink="http://www.w3.org/1999/xlink" x="0px" y="0px" width="24px"
	 height="24px" viewBox="0 0 24 24" enable-background="new 0 0 24 24" xml:space="preserve">
<g id="Outline_Icons">
	<g>
		<path d="M23.353,0.646c-0.145-0.145-0.363-0.185-0.55-0.106l-2.475,1.061c-0.059,0.025-0.112,0.062-0.157,0.106l-1.549,1.549
			l-1.828-0.609c-0.18-0.057-0.378-0.014-0.512,0.121l-1.768,1.768c-0.094,0.094-0.146,0.221-0.146,0.354s0.053,0.26,0.146,0.354
			l1.415,1.414l1.414,1.414l1.414,1.414c0.098,0.098,0.226,0.146,0.354,0.146s0.256-0.049,0.354-0.146l1.768-1.768
			c0.134-0.134,0.181-0.332,0.121-0.512l-0.609-1.828l1.549-1.549c0.045-0.045,0.081-0.098,0.106-0.156l1.061-2.475
			C23.54,1.009,23.498,0.791,23.353,0.646z M16.771,3.693l1.061,0.354l-1.549,1.549l-0.708-0.707L16.771,3.693z M20.306,7.229
			L19.11,8.424l-0.707-0.707l1.549-1.549L20.306,7.229z M21.517,3.189l-3.821,3.82l-0.707-0.707l3.821-3.82l1.237-0.53L21.517,3.189
			z"/>
		<path d="M13.1,10.898c0.095,0.096,0.223,0.146,0.354,0.146c0.051,0,0.103-0.008,0.153-0.024c0.516-0.165,2.234-0.741,2.675-1.183
			c0.283-0.283,0.439-0.66,0.439-1.061S16.565,8,16.282,7.717c-0.566-0.565-1.555-0.567-2.122,0
			c-0.442,0.441-1.017,2.159-1.183,2.675C12.92,10.57,12.967,10.766,13.1,10.898z M14.868,8.424c0.095-0.095,0.22-0.146,0.354-0.146
			c0.134,0,0.259,0.052,0.354,0.146c0.094,0.095,0.146,0.22,0.146,0.354s-0.052,0.259-0.146,0.354
			c-0.128,0.124-0.677,0.364-1.309,0.602C14.503,9.102,14.744,8.552,14.868,8.424z"/>
		<path d="M17.241,10.976c-0.271,0.056-0.444,0.32-0.388,0.591C16.95,12.035,17,12.518,17,13c0,3.859-3.14,7-7,7
			c-1.499,0-2.886-0.479-4.027-1.283c2.19-1.48,4.569-3.551,6.379-5.353c0.196-0.195,0.197-0.512,0.002-0.707
			c-0.195-0.197-0.512-0.196-0.707-0.002c-2.52,2.508-4.731,4.27-6.47,5.405c-0.962-0.917-1.661-2.103-1.979-3.437
			c-0.002-0.014-0.007-0.025-0.01-0.038C3.068,14.075,3,13.546,3,13c0-3.859,3.14-7,7-7c0.956,0,1.88,0.188,2.748,0.56
			C13,6.667,13.295,6.552,13.404,6.296c0.108-0.254-0.009-0.548-0.263-0.656C12.148,5.215,11.091,5,10,5c-4.411,0-8,3.589-8,8
			c0,0.553,0.056,1.092,0.164,1.612c-1.992,2.907-2.572,4.828-1.704,5.696c0.262,0.262,0.618,0.38,1.048,0.38
			c0.922,0,2.183-0.548,3.568-1.396C6.436,20.358,8.143,21,10,21c4.411,0,8-3.589,8-8c0-0.551-0.057-1.102-0.167-1.637
			C17.775,11.093,17.506,10.913,17.241,10.976z M1.167,19.602c-0.268-0.268-0.073-1.477,1.37-3.743
			c0.398,1.034,0.999,1.968,1.762,2.744C2.58,19.609,1.46,19.895,1.167,19.602z"/>
	</g>
</g>
<g id="invisible_shape">
	<rect fill="none" width="24" height="24"/>
</g>
</svg>
