<svg xmlns="http://www.w3.org/2000/svg" viewBox="0 0 20.349 20.322">
  <defs>
    <style>
      .cls-1 {
        fill: #f1f2f2;
      }
    </style>
  </defs>
  <g id="Group_1" data-name="Group 1" transform="translate(0 0)">
    <path id="Path_102" data-name="Path 102" class="cls-1" d="M30.6,20.472A10.161,10.161,0,1,0,40.774,30.633,10.179,10.179,0,0,0,30.6,20.472Zm6.695,4.8a8.532,8.532,0,0,1,1.9,5.234,21.231,21.231,0,0,0-3.976-.384,16.07,16.07,0,0,0-1.96.114c-.056-.137-.112-.273-.171-.41-.173-.406-.359-.809-.551-1.205a11.707,11.707,0,0,0,4.76-3.348ZM30.6,22.063a8.566,8.566,0,0,1,5.663,2.132,9.813,9.813,0,0,1-4.439,3.047,46.462,46.462,0,0,0-3.162-4.958,8.58,8.58,0,0,1,1.938-.221Zm-3.692.833a55.516,55.516,0,0,1,3.145,4.9,32.534,32.534,0,0,1-7.769,1.035H22.2A8.619,8.619,0,0,1,26.908,22.9ZM22,30.647q0-.106,0-.212h.226a32.176,32.176,0,0,0,8.585-1.22c.232.453.452.913.657,1.372-.1.028-.191.055-.286.086a13.746,13.746,0,0,0-7.021,5.661A8.541,8.541,0,0,1,22,30.647Zm8.6,8.584a8.56,8.56,0,0,1-5.243-1.787,11.875,11.875,0,0,1,6.736-5.329l.009,0a35.773,35.773,0,0,1,1.818,6.452,8.548,8.548,0,0,1-3.32.667Zm4.869-1.513a37.552,37.552,0,0,0-1.647-6.027,11.271,11.271,0,0,1,1.73-.13,12.773,12.773,0,0,1,3.528.493,8.6,8.6,0,0,1-3.611,5.664Z" transform="translate(-20.426 -20.472)"/>
  </g>
</svg>
