<?xml version="1.0" encoding="UTF-8"?><!DOCTYPE svg PUBLIC "-//W3C//DTD SVG 1.1//EN" "http://www.w3.org/Graphics/SVG/1.1/DTD/svg11.dtd"><svg xmlns="http://www.w3.org/2000/svg"><defs><style>.cls-1{fill:#d3d3d3}</style><style>.cls-1{fill:#232a30}</style><style>.cls-1{fill:#f1f2f2}</style><style>.cls-1{fill:#f1f2f2}</style><style>.cls-1{fill:#232a30}</style></defs><symbol id="anexo" viewBox="0 0 17.819 17.819"><path id="ic_attach_file_24px" class="cls-1" d="M7.255 3.818V12.6a3.055 3.055 0 0 1-6.109 0V3.055a1.909 1.909 0 1 1 3.818 0v8.018a.764.764 0 1 1-1.527 0V3.818H2.291v7.255a1.909 1.909 0 1 0 3.818 0V3.055a3.055 3.055 0 1 0-6.109 0V12.6a4.2 4.2 0 0 0 8.4 0V3.818z" transform="rotate(45 5.94 14.34)"/></symbol><symbol id="arrow-right" viewBox="0 0 14 8"><path id="ic_arrow" class="cls-1" d="M22 12l-4-4v3H8v2h10v3z" transform="translate(-8 -8)"/></symbol><symbol id="behance" viewBox="0 0 19.428 12.308"><path id="Path_105" data-name="Path 105" class="cls-1" d="M38.112 38.654c-4.621 0-4.627 4.6-4.627 4.628a4.277 4.277 0 0 0 4.627 4.61s4.123.234 4.123-3.208h-2.117s.07 1.3-1.935 1.3a1.957 1.957 0 0 1-2.117-2.094h6.24s.685-5.236-4.194-5.236zm-2.07 3.619a2.15 2.15 0 0 1 2.117-1.853 1.786 1.786 0 0 1 1.836 1.853zm-5.29-1.184a2.088 2.088 0 0 0 1.835-2.289 3.079 3.079 0 0 0-3.407-3.208h-6.27v12.047h6.269s3.83.118 3.83-3.56c0 0 .165-2.991-2.257-2.991zm-5.079-3.361h3.507s.851 0 .851 1.255-.5 1.437-1.068 1.437h-3.29zM29 45.5h-3.327v-3.227h3.507s1.273-.012 1.267 1.66c0 1.407-.947 1.554-1.447 1.567zm6.515-9.2v1.484h4.974V36.3z" transform="translate(-22.91 -35.587)"/></symbol><symbol id="dribble" viewBox="0 0 20.349 20.322"><g id="Group_1" data-name="Group 1"><path id="Path_102" data-name="Path 102" class="cls-1" d="M30.6 20.472a10.161 10.161 0 1 0 10.174 10.161A10.179 10.179 0 0 0 30.6 20.472zm6.695 4.8a8.532 8.532 0 0 1 1.9 5.234 21.231 21.231 0 0 0-3.976-.384 16.07 16.07 0 0 0-1.96.114 27.302 27.302 0 0 0-.722-1.615 11.707 11.707 0 0 0 4.76-3.348zM30.6 22.063a8.566 8.566 0 0 1 5.663 2.132 9.813 9.813 0 0 1-4.439 3.047 46.462 46.462 0 0 0-3.162-4.958 8.58 8.58 0 0 1 1.938-.221zm-3.692.833a55.516 55.516 0 0 1 3.145 4.9 32.534 32.534 0 0 1-7.769 1.035H22.2a8.619 8.619 0 0 1 4.708-5.931zM22 30.647v-.212h.226a32.176 32.176 0 0 0 8.585-1.22c.232.453.452.913.657 1.372-.1.028-.191.055-.286.086a13.746 13.746 0 0 0-7.021 5.661A8.541 8.541 0 0 1 22 30.647zm8.6 8.584a8.56 8.56 0 0 1-5.243-1.787 11.875 11.875 0 0 1 6.736-5.329h.009a35.773 35.773 0 0 1 1.818 6.452 8.548 8.548 0 0 1-3.32.667zm4.869-1.513a37.552 37.552 0 0 0-1.647-6.027 11.271 11.271 0 0 1 1.73-.13 12.773 12.773 0 0 1 3.528.493 8.6 8.6 0 0 1-3.611 5.664z" transform="translate(-20.426 -20.472)"/></g></symbol><symbol id="linkedin" viewBox="0 0 17.84 17.047"><g id="Group_2" data-name="Group 2"><path id="Path_103" data-name="Path 103" class="cls-1" d="M44.908 34.42v6.6h-3.825v-6.158c0-1.545-.552-2.6-1.937-2.6a2.092 2.092 0 0 0-1.962 1.4 2.618 2.618 0 0 0-.127.932v6.424h-3.824s.051-10.423 0-11.5h3.825v1.63c-.008.013-.019.025-.025.038h.025v-.038a3.8 3.8 0 0 1 3.447-1.9c2.516 0 4.4 1.644 4.4 5.176zM29.232 23.969a1.993 1.993 0 1 0-.05 3.975h.025a1.994 1.994 0 1 0 .025-3.975zM27.3 41.016h3.823v-11.5H27.3z" transform="translate(-27.068 -23.969)"/></g></symbol></svg>