<svg xmlns="http://www.w3.org/2000/svg" viewBox="0 0 173.75 42.499">
  <defs>
    <style>
      .cls-1 {
        fill: #fff;
      }

      .cls-2 {
        fill: none;
        stroke: #17e99d;
        stroke-linecap: round;
        stroke-miterlimit: 10;
        stroke-width: 1.5px;
      }
    </style>
  </defs>
  <g id="logotype" transform="translate(-1.75 -0.25)">
    <g id="Group_4" data-name="Group 4" transform="translate(46.612 10.38)">
      <g id="Group_3" data-name="Group 3" transform="translate(0 0)">
        <path id="Path_113" data-name="Path 113" class="cls-1" d="M320.7,43.291V21.173c1.273,0,2.506-.04,3.7,0a39.585,39.585,0,0,1,6.166.239,5.43,5.43,0,0,1,3.182,8.831,12.572,12.572,0,0,1-2.108,1.671c.04,0,.119.08.2.119a5.817,5.817,0,0,1-2.069,11.178c-.438.04-.875.04-1.273.04C325.951,43.291,323.365,43.291,320.7,43.291Zm1.193-1.154c.239,0,.438.04.636.04,2.427-.04,4.813.04,7.24-.119a4.341,4.341,0,0,0,4.376-4.5c.119-2.665-1.313-4.654-4.018-4.893s-5.45-.04-8.235-.04Zm0-10.741h6.047c.477,0,.995,0,1.472-.04,2.705-.239,4.3-1.83,4.376-4.376.08-2.586-1.313-4.257-4.1-4.575-1.671-.2-3.381-.119-5.092-.159h-2.745C321.893,25.31,321.893,28.294,321.893,31.4Z" transform="translate(-236.007 -21.156)"/>
        <path id="Path_114" data-name="Path 114" class="cls-1" d="M107.8,43.341V21.382c2.984,0,5.927-.2,8.831.04,3.1.239,5.012,2.188,5.609,5.211a28.827,28.827,0,0,1-.04,11.377,6.35,6.35,0,0,1-6.365,5.291C113.17,43.421,110.545,43.341,107.8,43.341Zm1.154-1.193c2.427,0,4.813.08,7.161-.04a4.828,4.828,0,0,0,4.535-3.3,12.435,12.435,0,0,0,.676-3.421,29.409,29.409,0,0,0-.358-8.752,4.941,4.941,0,0,0-4.416-4.137c-2.506-.278-5.012-.2-7.6-.318C108.954,28.981,108.954,35.584,108.954,42.148Z" transform="translate(-107.8 -21.245)"/>
        <path id="Path_115" data-name="Path 115" class="cls-1" d="M170.444,59.713c.239-.278.477-.517.756-.8a5.692,5.692,0,0,0,3.739,1.75c2.745.159,4.575-1.114,4.893-3.819a39.8,39.8,0,0,0,.04-4.893,4.927,4.927,0,0,1-2.9,2.268c-3.342.915-6.086-.676-6.8-4.1a15.52,15.52,0,0,1,.04-6.763c.477-1.989,1.551-3.5,3.62-3.938,2.267-.477,4.336-.08,5.808,1.989.04.08.04.159.278.159V39.5h1.114c0,.239.04.438.04.676,0,5.132.04,10.3,0,15.435a8.952,8.952,0,0,1-.438,2.705,4.722,4.722,0,0,1-4.3,3.421A7.337,7.337,0,0,1,170.444,59.713Zm9.547-12.65a11.225,11.225,0,0,0-.119-2.307,7.24,7.24,0,0,0-.995-2.864,3.758,3.758,0,0,0-2.665-1.631,3.86,3.86,0,0,0-.676-.04,4.03,4.03,0,0,0-4.3,3.54,14.114,14.114,0,0,0-.239,1.87,12.008,12.008,0,0,0,.557,5.172c.716,1.79,2.029,2.586,4.177,2.506a4.034,4.034,0,0,0,2.705-1.034,5.168,5.168,0,0,0,1.193-2.586A13.921,13.921,0,0,0,179.991,47.063Z" transform="translate(-145.143 -32.048)"/>
        <path id="Path_116" data-name="Path 116" class="cls-1" d="M245.721,42.09a4.159,4.159,0,0,0-.636-.477,4,4,0,0,1,3.063-2.108,14.681,14.681,0,0,1,4.177.04,3.784,3.784,0,0,1,3.421,3.859c.119,3.58.04,7.161.04,10.82h-1.074c-.04-.477-.08-.955-.119-1.551-1.87,1.989-4.137,1.989-6.445,1.671-2.546-.358-3.779-1.83-3.66-4.177a3.924,3.924,0,0,1,4.018-3.978c1.79-.119,3.58-.04,5.331-.08.239,0,.438-.04.915-.04a33.976,33.976,0,0,0-.4-3.58,2.444,2.444,0,0,0-1.87-1.83,6.743,6.743,0,0,0-4.336,0A9.691,9.691,0,0,0,245.721,42.09Zm8.831,4.853c-2.188.08-4.376.08-6.564.318a2.766,2.766,0,0,0-2.387,3.023,2.687,2.687,0,0,0,2.427,2.944,12.8,12.8,0,0,0,3.262.08c1.909-.2,3.023-1.154,3.222-2.665A28.282,28.282,0,0,0,254.553,46.943Z" transform="translate(-190.108 -32.127)"/>
        <path id="Path_117" data-name="Path 117" class="cls-1" d="M402.4,51.963c.279-.239.517-.477.756-.716,2.228,2.029,4.814,2.188,7.558,1.512a2.679,2.679,0,0,0,2.069-1.87c.6-1.87-.358-3.342-2.387-3.66-1.313-.2-2.705-.278-4.018-.517-2.267-.4-3.342-1.591-3.381-3.58a3.9,3.9,0,0,1,3.222-3.938,8.846,8.846,0,0,1,6.047.636,10.141,10.141,0,0,1,1.114.716c-.358.278-.637.477-.915.676a7.336,7.336,0,0,0-5.689-1.114,2.933,2.933,0,0,0-2.586,2.307,2.547,2.547,0,0,0,2.148,3.182c1.313.278,2.665.358,4.018.557a6.179,6.179,0,0,1,.915.2,3.3,3.3,0,0,1,2.745,2.626,3.844,3.844,0,0,1-1.79,4.217C410.078,54.549,405.026,54.748,402.4,51.963Z" transform="translate(-285.206 -31.856)"/>
        <path id="Path_118" data-name="Path 118" class="cls-1" d="M387.023,32.334v.955h-3.461v10.1c0,2.228.517,2.745,2.705,2.745.239,0,.438.04.676.04a1.368,1.368,0,0,1,.04.358v.517c-2.228.477-3.779-.119-4.336-1.75a6.417,6.417,0,0,1-.279-1.949c-.04-3.023,0-6.047,0-9.07v-.995H380.3v-.915h2.069V27.6h1.154v4.734Z" transform="translate(-271.897 -25.036)"/>
        <path id="Path_119" data-name="Path 119" class="cls-1" d="M228.923,47.032c-.159.04-.239.08-.278.08-3.381.159-4.336-.8-4.336-4.177V33.268H222.24c0-.358-.04-.636-.04-.995h2.108V27.5h1.154v4.734h3.421v.955h-3.421V43.253c0,2.347.477,2.785,2.824,2.824h.6A7.99,7.99,0,0,0,228.923,47.032Z" transform="translate(-176.691 -24.976)"/>
        <path id="Path_120" data-name="Path 120" class="cls-1" d="M289.375,42.3V43.3a19.349,19.349,0,0,1-2.148,0,2.579,2.579,0,0,1-2.307-2.228,6.072,6.072,0,0,1-.119-1.193V21.857c0-.159.04-.318.04-.557h1.114V39.4c0,.4,0,.8.04,1.193a1.718,1.718,0,0,0,1.83,1.671A9.844,9.844,0,0,0,289.375,42.3Z" transform="translate(-214.388 -21.243)"/>
        <path id="Path_121" data-name="Path 121" class="cls-1" d="M157.734,54.419H156.7V39.7h1.034Z" transform="translate(-137.247 -32.323)"/>
        <path id="Path_122" data-name="Path 122" class="cls-1" d="M211.1,39.6h1.034V54.319H211.1Z" transform="translate(-170.006 -32.263)"/>
        <path id="Path_123" data-name="Path 123" class="cls-1" d="M370.334,54.359H369.3V39.6h1.034Z" transform="translate(-265.273 -32.263)"/>
        <path id="Path_124" data-name="Path 124" class="cls-1" d="M370.233,21.3v2.268H369V21.3Z" transform="translate(-265.093 -21.243)"/>
        <path id="Path_125" data-name="Path 125" class="cls-1" d="M212.033,21.3v2.268H210.8V21.3Z" transform="translate(-169.826 -21.243)"/>
        <path id="Path_126" data-name="Path 126" class="cls-1" d="M157.793,21.34v3.023H156.6V21.3A10.452,10.452,0,0,0,157.793,21.34Z" transform="translate(-137.187 -21.243)"/>
      </g>
    </g>
    <path id="Path_127" data-name="Path 127" class="cls-2" d="M22.277,26.5a9.745,9.745,0,0,1-7.606,2.928H2.5V43.5H17.637a13.489,13.489,0,0,0,13.387-13.54h0A13.383,13.383,0,0,0,17.637,16.572H2.5V2.5H14.67a10.794,10.794,0,0,1,10.8,10.8h0" transform="translate(0 -1.5)"/>
  </g>
</svg>
