<svg xmlns="http://www.w3.org/2000/svg" xmlns:xlink="http://www.w3.org/1999/xlink" viewBox="0 0 88 173">
  <defs>
    <style>
      .cls-1 {
        fill: none;
      }

      .cls-2 {
        clip-path: url(#clip-path);
      }

      .cls-3 {
        fill: #36c491;
      }
    </style>
    <clipPath id="clip-path">
      <rect class="cls-1" width="88" height="173"/>
    </clipPath>
  </defs>
  <g id="dots_hero" data-name="dots hero" class="cls-2">
    <g transform="translate(-619 -1015)">
      <circle id="Ellipse_1" data-name="Ellipse 1" class="cls-3" cx="2" cy="2" r="2" transform="translate(619 1015)"/>
      <circle id="Ellipse_2" data-name="Ellipse 2" class="cls-3" cx="2" cy="2" r="2" transform="translate(619 1027)"/>
    </g>
    <g transform="translate(-607 -1015)">
      <circle id="Ellipse_1-2" data-name="Ellipse 1" class="cls-3" cx="2" cy="2" r="2" transform="translate(619 1015)"/>
      <circle id="Ellipse_2-2" data-name="Ellipse 2" class="cls-3" cx="2" cy="2" r="2" transform="translate(619 1027)"/>
    </g>
    <g transform="translate(-595 -1015)">
      <circle id="Ellipse_1-3" data-name="Ellipse 1" class="cls-3" cx="2" cy="2" r="2" transform="translate(619 1015)"/>
      <circle id="Ellipse_2-3" data-name="Ellipse 2" class="cls-3" cx="2" cy="2" r="2" transform="translate(619 1027)"/>
    </g>
    <g transform="translate(-583 -1015)">
      <circle id="Ellipse_1-4" data-name="Ellipse 1" class="cls-3" cx="2" cy="2" r="2" transform="translate(619 1015)"/>
      <circle id="Ellipse_2-4" data-name="Ellipse 2" class="cls-3" cx="2" cy="2" r="2" transform="translate(619 1027)"/>
    </g>
    <g transform="translate(-571 -1015)">
      <circle id="Ellipse_1-5" data-name="Ellipse 1" class="cls-3" cx="2" cy="2" r="2" transform="translate(619 1015)"/>
      <circle id="Ellipse_2-5" data-name="Ellipse 2" class="cls-3" cx="2" cy="2" r="2" transform="translate(619 1027)"/>
    </g>
    <g transform="translate(-559 -1015)">
      <circle id="Ellipse_1-6" data-name="Ellipse 1" class="cls-3" cx="2" cy="2" r="2" transform="translate(619 1015)"/>
      <circle id="Ellipse_2-6" data-name="Ellipse 2" class="cls-3" cx="2" cy="2" r="2" transform="translate(619 1027)"/>
    </g>
    <g transform="translate(-547 -1015)">
      <circle id="Ellipse_1-7" data-name="Ellipse 1" class="cls-3" cx="2" cy="2" r="2" transform="translate(619 1015)"/>
      <circle id="Ellipse_2-7" data-name="Ellipse 2" class="cls-3" cx="2" cy="2" r="2" transform="translate(619 1027)"/>
    </g>
    <g transform="translate(-535 -1015)">
      <circle id="Ellipse_1-8" data-name="Ellipse 1" class="cls-3" cx="2" cy="2" r="2" transform="translate(619 1015)"/>
      <circle id="Ellipse_2-8" data-name="Ellipse 2" class="cls-3" cx="2" cy="2" r="2" transform="translate(619 1027)"/>
    </g>
    <g transform="translate(-619 -991)">
      <circle id="Ellipse_1-9" data-name="Ellipse 1" class="cls-3" cx="2" cy="2" r="2" transform="translate(619 1015)"/>
      <circle id="Ellipse_2-9" data-name="Ellipse 2" class="cls-3" cx="2" cy="2" r="2" transform="translate(619 1027)"/>
    </g>
    <g transform="translate(-607 -991)">
      <circle id="Ellipse_1-10" data-name="Ellipse 1" class="cls-3" cx="2" cy="2" r="2" transform="translate(619 1015)"/>
      <circle id="Ellipse_2-10" data-name="Ellipse 2" class="cls-3" cx="2" cy="2" r="2" transform="translate(619 1027)"/>
    </g>
    <g transform="translate(-595 -991)">
      <circle id="Ellipse_1-11" data-name="Ellipse 1" class="cls-3" cx="2" cy="2" r="2" transform="translate(619 1015)"/>
      <circle id="Ellipse_2-11" data-name="Ellipse 2" class="cls-3" cx="2" cy="2" r="2" transform="translate(619 1027)"/>
    </g>
    <g transform="translate(-583 -991)">
      <circle id="Ellipse_1-12" data-name="Ellipse 1" class="cls-3" cx="2" cy="2" r="2" transform="translate(619 1015)"/>
      <circle id="Ellipse_2-12" data-name="Ellipse 2" class="cls-3" cx="2" cy="2" r="2" transform="translate(619 1027)"/>
    </g>
    <g transform="translate(-571 -991)">
      <circle id="Ellipse_1-13" data-name="Ellipse 1" class="cls-3" cx="2" cy="2" r="2" transform="translate(619 1015)"/>
      <circle id="Ellipse_2-13" data-name="Ellipse 2" class="cls-3" cx="2" cy="2" r="2" transform="translate(619 1027)"/>
    </g>
    <g transform="translate(-559 -991)">
      <circle id="Ellipse_1-14" data-name="Ellipse 1" class="cls-3" cx="2" cy="2" r="2" transform="translate(619 1015)"/>
      <circle id="Ellipse_2-14" data-name="Ellipse 2" class="cls-3" cx="2" cy="2" r="2" transform="translate(619 1027)"/>
    </g>
    <g transform="translate(-547 -991)">
      <circle id="Ellipse_1-15" data-name="Ellipse 1" class="cls-3" cx="2" cy="2" r="2" transform="translate(619 1015)"/>
      <circle id="Ellipse_2-15" data-name="Ellipse 2" class="cls-3" cx="2" cy="2" r="2" transform="translate(619 1027)"/>
    </g>
    <g transform="translate(-535 -991)">
      <circle id="Ellipse_1-16" data-name="Ellipse 1" class="cls-3" cx="2" cy="2" r="2" transform="translate(619 1015)"/>
      <circle id="Ellipse_2-16" data-name="Ellipse 2" class="cls-3" cx="2" cy="2" r="2" transform="translate(619 1027)"/>
    </g>
    <g transform="translate(-619 -967)">
      <circle id="Ellipse_1-17" data-name="Ellipse 1" class="cls-3" cx="2" cy="2" r="2" transform="translate(619 1015)"/>
      <circle id="Ellipse_2-17" data-name="Ellipse 2" class="cls-3" cx="2" cy="2" r="2" transform="translate(619 1027)"/>
    </g>
    <g transform="translate(-607 -967)">
      <circle id="Ellipse_1-18" data-name="Ellipse 1" class="cls-3" cx="2" cy="2" r="2" transform="translate(619 1015)"/>
      <circle id="Ellipse_2-18" data-name="Ellipse 2" class="cls-3" cx="2" cy="2" r="2" transform="translate(619 1027)"/>
    </g>
    <g transform="translate(-595 -967)">
      <circle id="Ellipse_1-19" data-name="Ellipse 1" class="cls-3" cx="2" cy="2" r="2" transform="translate(619 1015)"/>
      <circle id="Ellipse_2-19" data-name="Ellipse 2" class="cls-3" cx="2" cy="2" r="2" transform="translate(619 1027)"/>
    </g>
    <g transform="translate(-583 -967)">
      <circle id="Ellipse_1-20" data-name="Ellipse 1" class="cls-3" cx="2" cy="2" r="2" transform="translate(619 1015)"/>
      <circle id="Ellipse_2-20" data-name="Ellipse 2" class="cls-3" cx="2" cy="2" r="2" transform="translate(619 1027)"/>
    </g>
    <g transform="translate(-571 -967)">
      <circle id="Ellipse_1-21" data-name="Ellipse 1" class="cls-3" cx="2" cy="2" r="2" transform="translate(619 1015)"/>
      <circle id="Ellipse_2-21" data-name="Ellipse 2" class="cls-3" cx="2" cy="2" r="2" transform="translate(619 1027)"/>
    </g>
    <g transform="translate(-559 -967)">
      <circle id="Ellipse_1-22" data-name="Ellipse 1" class="cls-3" cx="2" cy="2" r="2" transform="translate(619 1015)"/>
      <circle id="Ellipse_2-22" data-name="Ellipse 2" class="cls-3" cx="2" cy="2" r="2" transform="translate(619 1027)"/>
    </g>
    <g transform="translate(-547 -967)">
      <circle id="Ellipse_1-23" data-name="Ellipse 1" class="cls-3" cx="2" cy="2" r="2" transform="translate(619 1015)"/>
      <circle id="Ellipse_2-23" data-name="Ellipse 2" class="cls-3" cx="2" cy="2" r="2" transform="translate(619 1027)"/>
    </g>
    <g transform="translate(-535 -967)">
      <circle id="Ellipse_1-24" data-name="Ellipse 1" class="cls-3" cx="2" cy="2" r="2" transform="translate(619 1015)"/>
      <circle id="Ellipse_2-24" data-name="Ellipse 2" class="cls-3" cx="2" cy="2" r="2" transform="translate(619 1027)"/>
    </g>
    <g transform="translate(-619 -943)">
      <circle id="Ellipse_1-25" data-name="Ellipse 1" class="cls-3" cx="2" cy="2" r="2" transform="translate(619 1015)"/>
      <circle id="Ellipse_2-25" data-name="Ellipse 2" class="cls-3" cx="2" cy="2" r="2" transform="translate(619 1027)"/>
    </g>
    <g transform="translate(-607 -943)">
      <circle id="Ellipse_1-26" data-name="Ellipse 1" class="cls-3" cx="2" cy="2" r="2" transform="translate(619 1015)"/>
      <circle id="Ellipse_2-26" data-name="Ellipse 2" class="cls-3" cx="2" cy="2" r="2" transform="translate(619 1027)"/>
    </g>
    <g transform="translate(-595 -943)">
      <circle id="Ellipse_1-27" data-name="Ellipse 1" class="cls-3" cx="2" cy="2" r="2" transform="translate(619 1015)"/>
      <circle id="Ellipse_2-27" data-name="Ellipse 2" class="cls-3" cx="2" cy="2" r="2" transform="translate(619 1027)"/>
    </g>
    <g transform="translate(-583 -943)">
      <circle id="Ellipse_1-28" data-name="Ellipse 1" class="cls-3" cx="2" cy="2" r="2" transform="translate(619 1015)"/>
      <circle id="Ellipse_2-28" data-name="Ellipse 2" class="cls-3" cx="2" cy="2" r="2" transform="translate(619 1027)"/>
    </g>
    <g transform="translate(-571 -943)">
      <circle id="Ellipse_1-29" data-name="Ellipse 1" class="cls-3" cx="2" cy="2" r="2" transform="translate(619 1015)"/>
      <circle id="Ellipse_2-29" data-name="Ellipse 2" class="cls-3" cx="2" cy="2" r="2" transform="translate(619 1027)"/>
    </g>
    <g transform="translate(-559 -943)">
      <circle id="Ellipse_1-30" data-name="Ellipse 1" class="cls-3" cx="2" cy="2" r="2" transform="translate(619 1015)"/>
      <circle id="Ellipse_2-30" data-name="Ellipse 2" class="cls-3" cx="2" cy="2" r="2" transform="translate(619 1027)"/>
    </g>
    <g transform="translate(-547 -943)">
      <circle id="Ellipse_1-31" data-name="Ellipse 1" class="cls-3" cx="2" cy="2" r="2" transform="translate(619 1015)"/>
      <circle id="Ellipse_2-31" data-name="Ellipse 2" class="cls-3" cx="2" cy="2" r="2" transform="translate(619 1027)"/>
    </g>
    <g transform="translate(-535 -943)">
      <circle id="Ellipse_1-32" data-name="Ellipse 1" class="cls-3" cx="2" cy="2" r="2" transform="translate(619 1015)"/>
      <circle id="Ellipse_2-32" data-name="Ellipse 2" class="cls-3" cx="2" cy="2" r="2" transform="translate(619 1027)"/>
    </g>
    <g transform="translate(-619 -919)">
      <circle id="Ellipse_1-33" data-name="Ellipse 1" class="cls-3" cx="2" cy="2" r="2" transform="translate(619 1015)"/>
      <circle id="Ellipse_2-33" data-name="Ellipse 2" class="cls-3" cx="2" cy="2" r="2" transform="translate(619 1027)"/>
    </g>
    <g transform="translate(-607 -919)">
      <circle id="Ellipse_1-34" data-name="Ellipse 1" class="cls-3" cx="2" cy="2" r="2" transform="translate(619 1015)"/>
      <circle id="Ellipse_2-34" data-name="Ellipse 2" class="cls-3" cx="2" cy="2" r="2" transform="translate(619 1027)"/>
    </g>
    <g transform="translate(-595 -919)">
      <circle id="Ellipse_1-35" data-name="Ellipse 1" class="cls-3" cx="2" cy="2" r="2" transform="translate(619 1015)"/>
      <circle id="Ellipse_2-35" data-name="Ellipse 2" class="cls-3" cx="2" cy="2" r="2" transform="translate(619 1027)"/>
    </g>
    <g transform="translate(-583 -919)">
      <circle id="Ellipse_1-36" data-name="Ellipse 1" class="cls-3" cx="2" cy="2" r="2" transform="translate(619 1015)"/>
      <circle id="Ellipse_2-36" data-name="Ellipse 2" class="cls-3" cx="2" cy="2" r="2" transform="translate(619 1027)"/>
    </g>
    <g transform="translate(-571 -919)">
      <circle id="Ellipse_1-37" data-name="Ellipse 1" class="cls-3" cx="2" cy="2" r="2" transform="translate(619 1015)"/>
      <circle id="Ellipse_2-37" data-name="Ellipse 2" class="cls-3" cx="2" cy="2" r="2" transform="translate(619 1027)"/>
    </g>
    <g transform="translate(-559 -919)">
      <circle id="Ellipse_1-38" data-name="Ellipse 1" class="cls-3" cx="2" cy="2" r="2" transform="translate(619 1015)"/>
      <circle id="Ellipse_2-38" data-name="Ellipse 2" class="cls-3" cx="2" cy="2" r="2" transform="translate(619 1027)"/>
    </g>
    <g transform="translate(-547 -919)">
      <circle id="Ellipse_1-39" data-name="Ellipse 1" class="cls-3" cx="2" cy="2" r="2" transform="translate(619 1015)"/>
      <circle id="Ellipse_2-39" data-name="Ellipse 2" class="cls-3" cx="2" cy="2" r="2" transform="translate(619 1027)"/>
    </g>
    <g transform="translate(-535 -919)">
      <circle id="Ellipse_1-40" data-name="Ellipse 1" class="cls-3" cx="2" cy="2" r="2" transform="translate(619 1015)"/>
      <circle id="Ellipse_2-40" data-name="Ellipse 2" class="cls-3" cx="2" cy="2" r="2" transform="translate(619 1027)"/>
    </g>
    <g transform="translate(-619 -895)">
      <circle id="Ellipse_1-41" data-name="Ellipse 1" class="cls-3" cx="2" cy="2" r="2" transform="translate(619 1015)"/>
      <circle id="Ellipse_2-41" data-name="Ellipse 2" class="cls-3" cx="2" cy="2" r="2" transform="translate(619 1027)"/>
    </g>
    <g transform="translate(-607 -895)">
      <circle id="Ellipse_1-42" data-name="Ellipse 1" class="cls-3" cx="2" cy="2" r="2" transform="translate(619 1015)"/>
      <circle id="Ellipse_2-42" data-name="Ellipse 2" class="cls-3" cx="2" cy="2" r="2" transform="translate(619 1027)"/>
    </g>
    <g transform="translate(-595 -895)">
      <circle id="Ellipse_1-43" data-name="Ellipse 1" class="cls-3" cx="2" cy="2" r="2" transform="translate(619 1015)"/>
      <circle id="Ellipse_2-43" data-name="Ellipse 2" class="cls-3" cx="2" cy="2" r="2" transform="translate(619 1027)"/>
    </g>
    <g transform="translate(-583 -895)">
      <circle id="Ellipse_1-44" data-name="Ellipse 1" class="cls-3" cx="2" cy="2" r="2" transform="translate(619 1015)"/>
      <circle id="Ellipse_2-44" data-name="Ellipse 2" class="cls-3" cx="2" cy="2" r="2" transform="translate(619 1027)"/>
    </g>
    <g transform="translate(-571 -895)">
      <circle id="Ellipse_1-45" data-name="Ellipse 1" class="cls-3" cx="2" cy="2" r="2" transform="translate(619 1015)"/>
      <circle id="Ellipse_2-45" data-name="Ellipse 2" class="cls-3" cx="2" cy="2" r="2" transform="translate(619 1027)"/>
    </g>
    <g transform="translate(-559 -895)">
      <circle id="Ellipse_1-46" data-name="Ellipse 1" class="cls-3" cx="2" cy="2" r="2" transform="translate(619 1015)"/>
      <circle id="Ellipse_2-46" data-name="Ellipse 2" class="cls-3" cx="2" cy="2" r="2" transform="translate(619 1027)"/>
    </g>
    <g transform="translate(-547 -895)">
      <circle id="Ellipse_1-47" data-name="Ellipse 1" class="cls-3" cx="2" cy="2" r="2" transform="translate(619 1015)"/>
      <circle id="Ellipse_2-47" data-name="Ellipse 2" class="cls-3" cx="2" cy="2" r="2" transform="translate(619 1027)"/>
    </g>
    <g transform="translate(-535 -895)">
      <circle id="Ellipse_1-48" data-name="Ellipse 1" class="cls-3" cx="2" cy="2" r="2" transform="translate(619 1015)"/>
      <circle id="Ellipse_2-48" data-name="Ellipse 2" class="cls-3" cx="2" cy="2" r="2" transform="translate(619 1027)"/>
    </g>
    <g transform="translate(-619 -871)">
      <circle id="Ellipse_1-49" data-name="Ellipse 1" class="cls-3" cx="2" cy="2" r="2" transform="translate(619 1015)"/>
      <circle id="Ellipse_2-49" data-name="Ellipse 2" class="cls-3" cx="2" cy="2" r="2" transform="translate(619 1027)"/>
    </g>
    <g transform="translate(-607 -871)">
      <circle id="Ellipse_1-50" data-name="Ellipse 1" class="cls-3" cx="2" cy="2" r="2" transform="translate(619 1015)"/>
      <circle id="Ellipse_2-50" data-name="Ellipse 2" class="cls-3" cx="2" cy="2" r="2" transform="translate(619 1027)"/>
    </g>
    <g transform="translate(-595 -871)">
      <circle id="Ellipse_1-51" data-name="Ellipse 1" class="cls-3" cx="2" cy="2" r="2" transform="translate(619 1015)"/>
      <circle id="Ellipse_2-51" data-name="Ellipse 2" class="cls-3" cx="2" cy="2" r="2" transform="translate(619 1027)"/>
    </g>
    <g transform="translate(-583 -871)">
      <circle id="Ellipse_1-52" data-name="Ellipse 1" class="cls-3" cx="2" cy="2" r="2" transform="translate(619 1015)"/>
      <circle id="Ellipse_2-52" data-name="Ellipse 2" class="cls-3" cx="2" cy="2" r="2" transform="translate(619 1027)"/>
    </g>
    <g transform="translate(-571 -871)">
      <circle id="Ellipse_1-53" data-name="Ellipse 1" class="cls-3" cx="2" cy="2" r="2" transform="translate(619 1015)"/>
      <circle id="Ellipse_2-53" data-name="Ellipse 2" class="cls-3" cx="2" cy="2" r="2" transform="translate(619 1027)"/>
    </g>
    <g transform="translate(-559 -871)">
      <circle id="Ellipse_1-54" data-name="Ellipse 1" class="cls-3" cx="2" cy="2" r="2" transform="translate(619 1015)"/>
      <circle id="Ellipse_2-54" data-name="Ellipse 2" class="cls-3" cx="2" cy="2" r="2" transform="translate(619 1027)"/>
    </g>
    <g transform="translate(-547 -871)">
      <circle id="Ellipse_1-55" data-name="Ellipse 1" class="cls-3" cx="2" cy="2" r="2" transform="translate(619 1015)"/>
      <circle id="Ellipse_2-55" data-name="Ellipse 2" class="cls-3" cx="2" cy="2" r="2" transform="translate(619 1027)"/>
    </g>
    <g transform="translate(-535 -871)">
      <circle id="Ellipse_1-56" data-name="Ellipse 1" class="cls-3" cx="2" cy="2" r="2" transform="translate(619 1015)"/>
      <circle id="Ellipse_2-56" data-name="Ellipse 2" class="cls-3" cx="2" cy="2" r="2" transform="translate(619 1027)"/>
    </g>
    <g transform="translate(-619 -847)">
      <circle id="Ellipse_1-57" data-name="Ellipse 1" class="cls-3" cx="2" cy="2" r="2" transform="translate(619 1015)"/>
      <circle id="Ellipse_2-57" data-name="Ellipse 2" class="cls-3" cx="2" cy="2" r="2" transform="translate(619 1027)"/>
    </g>
    <g transform="translate(-607 -847)">
      <circle id="Ellipse_1-58" data-name="Ellipse 1" class="cls-3" cx="2" cy="2" r="2" transform="translate(619 1015)"/>
      <circle id="Ellipse_2-58" data-name="Ellipse 2" class="cls-3" cx="2" cy="2" r="2" transform="translate(619 1027)"/>
    </g>
    <g transform="translate(-595 -847)">
      <circle id="Ellipse_1-59" data-name="Ellipse 1" class="cls-3" cx="2" cy="2" r="2" transform="translate(619 1015)"/>
      <circle id="Ellipse_2-59" data-name="Ellipse 2" class="cls-3" cx="2" cy="2" r="2" transform="translate(619 1027)"/>
    </g>
    <g transform="translate(-583 -847)">
      <circle id="Ellipse_1-60" data-name="Ellipse 1" class="cls-3" cx="2" cy="2" r="2" transform="translate(619 1015)"/>
      <circle id="Ellipse_2-60" data-name="Ellipse 2" class="cls-3" cx="2" cy="2" r="2" transform="translate(619 1027)"/>
    </g>
    <g transform="translate(-571 -847)">
      <circle id="Ellipse_1-61" data-name="Ellipse 1" class="cls-3" cx="2" cy="2" r="2" transform="translate(619 1015)"/>
      <circle id="Ellipse_2-61" data-name="Ellipse 2" class="cls-3" cx="2" cy="2" r="2" transform="translate(619 1027)"/>
    </g>
    <g transform="translate(-559 -847)">
      <circle id="Ellipse_1-62" data-name="Ellipse 1" class="cls-3" cx="2" cy="2" r="2" transform="translate(619 1015)"/>
      <circle id="Ellipse_2-62" data-name="Ellipse 2" class="cls-3" cx="2" cy="2" r="2" transform="translate(619 1027)"/>
    </g>
    <g transform="translate(-547 -847)">
      <circle id="Ellipse_1-63" data-name="Ellipse 1" class="cls-3" cx="2" cy="2" r="2" transform="translate(619 1015)"/>
      <circle id="Ellipse_2-63" data-name="Ellipse 2" class="cls-3" cx="2" cy="2" r="2" transform="translate(619 1027)"/>
    </g>
    <g transform="translate(-535 -847)">
      <circle id="Ellipse_1-64" data-name="Ellipse 1" class="cls-3" cx="2" cy="2" r="2" transform="translate(619 1015)"/>
      <circle id="Ellipse_2-64" data-name="Ellipse 2" class="cls-3" cx="2" cy="2" r="2" transform="translate(619 1027)"/>
    </g>
  </g>
</svg>
